<?xml version="1.0" encoding="utf-8"?>
<!-- Generator: Adobe Illustrator 21.0.2, SVG Export Plug-In . SVG Version: 6.00 Build 0)  -->
<svg version="1.1" id="Слой_1" xmlns="http://www.w3.org/2000/svg" xmlns:xlink="http://www.w3.org/1999/xlink" x="0px" y="0px"
	 viewBox="0 0 36 36" enable-background="new 0 0 36 36" xml:space="preserve">
<g>
	<path fill="#FFFFFF" d="M18,35.5C8.4,35.5,0.5,27.6,0.5,18S8.4,0.5,18,0.5S35.5,8.4,35.5,18S27.6,35.5,18,35.5z"/>
	<path fill="#FFAD2A" d="M18,1c9.4,0,17,7.6,17,17s-7.6,17-17,17S1,27.4,1,18S8.6,1,18,1 M18,0C8.1,0,0,8.1,0,18s8.1,18,18,18
		s18-8.1,18-18S27.9,0,18,0L18,0z"/>
</g>
<path fill="none" stroke="#FBB03B" stroke-miterlimit="10" d="M21.7,13.9l-1.5-1.6c-0.4-0.4-1.1-0.4-1.5,0l-15,14
	c-0.4,0.4-0.4,1,0,1.5l1.5,1.6c0.4,0.4,1.1,0.4,1.5,0l15-14C22.1,15,22.1,14.3,21.7,13.9z"/>
<line fill="none" stroke="#FBB03B" stroke-miterlimit="10" x1="8.8" y1="27.4" x2="3.5" y2="26.9"/>
<line fill="none" stroke="#FBB03B" stroke-miterlimit="10" x1="8.8" y1="27.6" x2="7.8" y2="22.4"/>
<line fill="none" stroke="#FBB03B" stroke-miterlimit="10" x1="13.1" y1="23.1" x2="7.8" y2="22.7"/>
<line fill="none" stroke="#FBB03B" stroke-miterlimit="10" x1="13.4" y1="23.3" x2="11.7" y2="18.3"/>
<line fill="none" stroke="#FBB03B" stroke-miterlimit="10" x1="17.3" y1="19.1" x2="12.1" y2="18.3"/>
<path fill="none" stroke="#FBB03B" stroke-miterlimit="10" d="M17.6,19.1c-0.5-1.4-0.9-2.8-1.4-4.2"/>
<line fill="none" stroke="#FBB03B" stroke-miterlimit="10" x1="21.6" y1="14.2" x2="16.3" y2="14.8"/>
</svg>
