<?xml version="1.0" encoding="utf-8"?>
<!-- Generator: Adobe Illustrator 21.0.2, SVG Export Plug-In . SVG Version: 6.00 Build 0)  -->
<svg version="1.1" id="Слой_1" xmlns="http://www.w3.org/2000/svg" xmlns:xlink="http://www.w3.org/1999/xlink" x="0px" y="0px"
	 viewBox="0 0 36 36" enable-background="new 0 0 36 36" xml:space="preserve">
<g>
	<path fill="#FFFFFF" d="M18,35.5C8.4,35.5,0.5,27.6,0.5,18S8.4,0.5,18,0.5S35.5,8.4,35.5,18S27.6,35.5,18,35.5z"/>
	<path fill="#FFAD2A" d="M18,1c9.4,0,17,7.6,17,17s-7.6,17-17,17S1,27.4,1,18S8.6,1,18,1 M18,0C8.1,0,0,8.1,0,18s8.1,18,18,18
		s18-8.1,18-18S27.9,0,18,0L18,0z"/>
</g>
<g>
	<path fill="#FFFFFF" d="M12.4,25.5c-0.2,0-0.4-0.1-0.6-0.3c-0.1-0.2-0.2-0.4-0.2-0.6l0.7-7.4c0-0.4,0.4-0.7,0.8-0.7h9.7
		c0.4,0,0.7,0.3,0.8,0.7l0.7,7.4c0,0.2,0,0.4-0.2,0.6c-0.1,0.2-0.4,0.3-0.6,0.3H12.4z"/>
	<path fill="#FFAD2A" d="M22.8,17c0.1,0,0.3,0.1,0.3,0.3l0.7,7.4c0,0.1,0,0.2-0.1,0.2c0,0-0.1,0.1-0.2,0.1H12.4
		c-0.1,0-0.2,0-0.2-0.1c0,0-0.1-0.1-0.1-0.2l0.7-7.4c0-0.1,0.1-0.3,0.3-0.3H22.8 M22.8,16h-9.7c-0.7,0-1.2,0.5-1.3,1.2l-0.7,7.4
		c-0.1,0.8,0.5,1.4,1.3,1.4h11.2c0.8,0,1.3-0.7,1.3-1.4l-0.7-7.4C24,16.5,23.5,16,22.8,16L22.8,16z"/>
</g>
<g>
	<path fill="#FFFFFF" d="M16.4,16.5c-0.4,0-0.8-0.3-0.9-0.6l-0.7-2.5c-0.1-0.3,0-0.5,0.1-0.6c0.2-0.2,0.5-0.4,0.8-0.4h4.8
		c0.3,0,0.6,0.1,0.8,0.4c0.1,0.1,0.2,0.3,0.1,0.6l-0.7,2.5c-0.1,0.3-0.5,0.6-0.9,0.6H16.4z"/>
	<path fill="#FFAD2A" d="M20.6,13c0.2,0,0.3,0.1,0.4,0.2c0.1,0.1,0,0.1,0,0.1l-0.7,2.5c0,0.1-0.2,0.2-0.4,0.2h-3.4
		c-0.2,0-0.4-0.1-0.4-0.2l-0.7-2.5c0,0,0-0.1,0-0.1c0.1-0.1,0.2-0.2,0.4-0.2H20.6 M20.6,12h-4.8c-0.9,0-1.6,0.8-1.4,1.6L15,16
		c0.2,0.6,0.7,1,1.4,1h3.4c0.7,0,1.2-0.4,1.4-1l0.7-2.5C22.2,12.8,21.5,12,20.6,12L20.6,12z"/>
</g>
<g>
	<circle fill="#FFFFFF" cx="18" cy="21" r="3.5"/>
	<path fill="#FFAD2A" d="M18,18c1.7,0,3,1.3,3,3s-1.3,3-3,3s-3-1.3-3-3S16.3,18,18,18 M18,17c-2.2,0-4,1.8-4,4s1.8,4,4,4s4-1.8,4-4
		S20.2,17,18,17L18,17z"/>
</g>
<g>
	<line fill="none" stroke="#FFAD2A" stroke-miterlimit="10" x1="18.5" y1="21.5" x2="17.5" y2="19.5"/>
</g>
</svg>
