<?xml version="1.0" encoding="utf-8"?>
<!-- Generator: Adobe Illustrator 21.0.2, SVG Export Plug-In . SVG Version: 6.00 Build 0)  -->
<svg version="1.1" id="Слой_1" xmlns="http://www.w3.org/2000/svg" xmlns:xlink="http://www.w3.org/1999/xlink" x="0px" y="0px"
	 viewBox="0 0 36 36" enable-background="new 0 0 36 36" xml:space="preserve">
<g>
	<path fill="#FFFFFF" d="M18,35.5C8.4,35.5,0.5,27.6,0.5,18S8.4,0.5,18,0.5S35.5,8.4,35.5,18S27.6,35.5,18,35.5z"/>
	<path fill="#FFAD2A" d="M18,1c9.4,0,17,7.6,17,17s-7.6,17-17,17S1,27.4,1,18S8.6,1,18,1 M18,0C8.1,0,0,8.1,0,18s8.1,18,18,18
		s18-8.1,18-18S27.9,0,18,0L18,0z"/>
</g>
<g>
	<path fill="#FFFFFF" d="M10.8,26.4c-0.2,0-0.5-0.2-0.5-0.4l-1.7-11c0-0.1,0-0.3,0.1-0.4s0.2-0.2,0.4-0.2h18.5
		c0.2,0,0.3,0.1,0.4,0.2c0.1,0.1,0.1,0.3,0.1,0.4l-3.4,10.1c-0.1,0.2-0.2,0.3-0.4,0.3L10.8,26.4z"/>
	<path fill="#FFAD2A" d="M27.6,15l-3.3,10l-13.4,0.9L9.2,15H27.6 M27.6,14H9.2c-0.6,0-1.1,0.5-1,1.1l1.7,11c0.1,0.5,0.5,0.8,1,0.8
		c0,0,0,0,0.1,0L24.3,26c0.4,0,0.7-0.3,0.9-0.7l3.4-10.1C28.8,14.7,28.3,14,27.6,14L27.6,14z"/>
</g>
</svg>
