<?xml version="1.0" encoding="utf-8"?>
<!-- Generator: Adobe Illustrator 21.0.2, SVG Export Plug-In . SVG Version: 6.00 Build 0)  -->
<svg version="1.1" id="Слой_1" xmlns="http://www.w3.org/2000/svg" xmlns:xlink="http://www.w3.org/1999/xlink" x="0px" y="0px"
	 viewBox="0 0 36 36" enable-background="new 0 0 36 36" xml:space="preserve">
<g>
	<path fill="#FFFFFF" d="M18,35.5C8.4,35.5,0.5,27.6,0.5,18S8.4,0.5,18,0.5S35.5,8.4,35.5,18S27.6,35.5,18,35.5z"/>
	<path fill="#FFAD2A" d="M18,1c9.4,0,17,7.6,17,17s-7.6,17-17,17S1,27.4,1,18S8.6,1,18,1 M18,0C8.1,0,0,8.1,0,18s8.1,18,18,18
		s18-8.1,18-18S27.9,0,18,0L18,0z"/>
</g>
<g>
	<path fill="#FFFFFF" d="M5.8,24.5c-0.7,0-1.3-0.6-1.3-1.3v-2.4c0-0.7,0.6-1.3,1.3-1.3h25.4c0.7,0,1.3,0.6,1.3,1.3v2.4
		c0,0.7-0.6,1.3-1.3,1.3H5.8z"/>
	<path fill="#FFAD2A" d="M31.2,20c0.4,0,0.8,0.4,0.8,0.8v2.4c0,0.4-0.4,0.8-0.8,0.8H5.8C5.4,24,5,23.6,5,23.2v-2.4
		C5,20.4,5.4,20,5.8,20H31.2 M31.2,19H5.8c-1,0-1.8,0.8-1.8,1.8v2.4c0,1,0.8,1.8,1.8,1.8h25.4c1,0,1.8-0.8,1.8-1.8v-2.4
		C33,19.8,32.2,19,31.2,19L31.2,19z"/>
</g>
<g>
	<circle fill="#FFFFFF" cx="10" cy="25" r="2.5"/>
	<path fill="#FFAD2A" d="M10,23c1.1,0,2,0.9,2,2s-0.9,2-2,2s-2-0.9-2-2S8.9,23,10,23 M10,22c-1.7,0-3,1.3-3,3s1.3,3,3,3s3-1.3,3-3
		S11.7,22,10,22L10,22z"/>
</g>
<g>
	<circle fill="#FFFFFF" cx="26" cy="25" r="2.5"/>
	<path fill="#FFAD2A" d="M26,23c1.1,0,2,0.9,2,2s-0.9,2-2,2s-2-0.9-2-2S24.9,23,26,23 M26,22c-1.7,0-3,1.3-3,3s1.3,3,3,3s3-1.3,3-3
		S27.7,22,26,22L26,22z"/>
</g>
<g>
	<path fill="#FFFFFF" d="M7.2,19.5c-0.4,0-0.7-0.3-0.7-0.7v-4.6c0-0.4,0.3-0.7,0.7-0.7h6.6c0.4,0,0.7,0.3,0.7,0.7v4.6
		c0,0.4-0.3,0.7-0.7,0.7H7.2z"/>
	<path fill="#FFAD2A" d="M13.8,14c0.1,0,0.2,0.1,0.2,0.2v4.6c0,0.1-0.1,0.2-0.2,0.2H7.2C7.1,19,7,18.9,7,18.8v-4.6
		C7,14.1,7.1,14,7.2,14H13.8 M13.8,13H7.2C6.5,13,6,13.5,6,14.2v4.6C6,19.5,6.5,20,7.2,20h6.6c0.7,0,1.2-0.5,1.2-1.2v-4.6
		C15,13.5,14.5,13,13.8,13L13.8,13z"/>
</g>
<g>
	<path fill="#FFFFFF" d="M17.3,19.5c-0.5,0-0.8-0.4-0.8-0.8v-4.3c0-0.5,0.4-0.8,0.8-0.8h13.3c0.5,0,0.8,0.4,0.8,0.8v4.3
		c0,0.5-0.4,0.8-0.8,0.8H17.3z"/>
	<path fill="#FFAD2A" d="M30.7,14c0.2,0,0.3,0.1,0.3,0.3v4.3c0,0.2-0.1,0.3-0.3,0.3H17.3c-0.2,0-0.3-0.1-0.3-0.3v-4.3
		c0-0.2,0.1-0.3,0.3-0.3H30.7 M30.7,13H17.3c-0.7,0-1.3,0.6-1.3,1.3v4.3c0,0.7,0.6,1.3,1.3,1.3h13.3c0.7,0,1.3-0.6,1.3-1.3v-4.3
		C32,13.6,31.4,13,30.7,13L30.7,13z"/>
</g>
</svg>
