<?xml version="1.0" encoding="utf-8"?>
<!-- Generator: Adobe Illustrator 21.0.2, SVG Export Plug-In . SVG Version: 6.00 Build 0)  -->
<svg version="1.1" id="Слой_1" xmlns="http://www.w3.org/2000/svg" xmlns:xlink="http://www.w3.org/1999/xlink" x="0px" y="0px"
	 viewBox="0 0 36 36" enable-background="new 0 0 36 36" xml:space="preserve">
<g>
	<path fill="#FFFFFF" d="M18,35.5C8.4,35.5,0.5,27.6,0.5,18S8.4,0.5,18,0.5S35.5,8.4,35.5,18S27.6,35.5,18,35.5z"/>
	<path fill="#FFAD2A" d="M18,1c9.4,0,17,7.6,17,17s-7.6,17-17,17S1,27.4,1,18S8.6,1,18,1 M18,0C8.1,0,0,8.1,0,18s8.1,18,18,18
		s18-8.1,18-18S27.9,0,18,0L18,0z"/>
</g>
<g>
	<path fill="#FFAD2A" d="M7.3,27.5c-0.4,0-0.5-0.3-0.6-0.4c-0.1-0.2-0.1-0.5,0.1-0.8l2-2.5c1.6-2,3.1-4.2,4.3-6.5l1.9-3.6
		c0.1-0.2,0.3-0.4,0.6-0.4l6.4-0.1c0.4,0,0.7,0.3,0.7,0.7v6.3l0.1,6.3c0,0.2-0.1,0.4-0.2,0.5c-0.1,0.1-0.3,0.2-0.4,0.2L7.3,27.5
		L7.3,27.5z"/>
	<g>
		<path fill="#FFAD2A" d="M21.9,12.9v1c0.1,0,0.1,0.1,0.1,0.2l0,6.3l0.1,6.3c0,0.1,0,0.2-0.1,0.2c0,0-0.1,0-0.1,0L7.3,27
			c0,0-0.1,0-0.1-0.1c0,0-0.1-0.2,0-0.3l2-2.5c1.6-2.1,3.1-4.3,4.3-6.6l1.9-3.6c0-0.1,0.1-0.1,0.1-0.1l6.4-0.1L21.9,12.9 M21.9,12.9
			C21.9,12.9,21.9,12.9,21.9,12.9l-6.4,0.1c-0.4,0-0.8,0.2-1,0.6l-1.9,3.6c-1.2,2.3-2.6,4.4-4.2,6.4l-2,2.5c-0.6,0.8-0.1,2,0.9,2
			c0,0,0,0,0,0L22,28c0.6,0,1.2-0.6,1.1-1.2L23,20.4l0-6.3C23,13.4,22.5,12.9,21.9,12.9L21.9,12.9z"/>
	</g>
</g>
<g>
	<rect x="22.5" y="19.5" fill="#FFFFFF" width="4" height="3"/>
	<path fill="#FFAD2A" d="M26,20v2h-3v-2H26 M27,19h-5v4h5V19L27,19z"/>
</g>
<g>
	<path fill="#FFAD2A" d="M26.1,27.5c-0.3,0-0.6-0.3-0.6-0.7V13.2c0.1-0.1,0.3-0.2,0.9-0.3c0.9-0.2,1.8-0.5,2.9-1
		c0,0,3.5-1.4,3.5-1.4c0,0,0.1,0,0.1,0c0.2,0,0.3,0.1,0.4,0.2c0.1,0.2,0.2,0.4,0.2,0.6l1,10.6l-1.9,3.9c-0.2,0.2-2.1,0.8-2.5,0.9
		l-3.8,0.8C26.2,27.5,26.2,27.5,26.1,27.5z"/>
	<g>
		<path fill="#FFAD2A" d="M32.9,11C32.9,11,32.9,11,32.9,11c0.1,0.1,0.1,0.1,0.1,0.3l0,0.1l0,0.1l1,10.4l-1.8,3.6
			c-0.5,0.2-1.9,0.7-2.2,0.8L26.1,27c0,0-0.1-0.1-0.1-0.2v-6v-7.3c0.1,0,0.3-0.1,0.5-0.2c0.9-0.2,1.8-0.5,2.9-1L32.9,11 M32.9,10
			c-0.1,0-0.2,0-0.3,0l-3.5,1.4c-0.9,0.4-1.9,0.7-2.8,0.9c-0.6,0.2-1.3,0.4-1.3,0.7v7.7v6c0,0.7,0.5,1.2,1.1,1.2c0.1,0,0.1,0,0.2,0
			l3.8-0.8c0.3-0.1,2.7-0.8,2.8-1.1l2-4l-1-10.6C34.1,10.6,33.5,10,32.9,10L32.9,10z M35,22C35,22,35,22,35,22C35,22,35,22,35,22
			C35,22,35,22,35,22L35,22z"/>
	</g>
</g>
</svg>
