<?xml version="1.0" encoding="utf-8"?>
<!-- Generator: Adobe Illustrator 21.0.2, SVG Export Plug-In . SVG Version: 6.00 Build 0)  -->
<svg version="1.1" id="Слой_1" xmlns="http://www.w3.org/2000/svg" xmlns:xlink="http://www.w3.org/1999/xlink" x="0px" y="0px"
	 viewBox="0 0 36 36" enable-background="new 0 0 36 36" xml:space="preserve">
<g>
	<path fill="#FFFFFF" d="M18,35.5C8.4,35.5,0.5,27.6,0.5,18S8.4,0.5,18,0.5S35.5,8.4,35.5,18S27.6,35.5,18,35.5z"/>
	<path fill="#FFAD2A" d="M18,1c9.4,0,17,7.6,17,17s-7.6,17-17,17S1,27.4,1,18S8.6,1,18,1 M18,0C8.1,0,0,8.1,0,18s8.1,18,18,18
		s18-8.1,18-18S27.9,0,18,0L18,0z"/>
</g>
<g>
	<circle fill="#FFFFFF" cx="18.5" cy="18.5" r="7"/>
	<path fill="#FFAD2A" d="M18.5,12c3.6,0,6.5,2.9,6.5,6.5S22.1,25,18.5,25S12,22.1,12,18.5S14.9,12,18.5,12 M18.5,11
		c-4.1,0-7.5,3.4-7.5,7.5s3.4,7.5,7.5,7.5s7.5-3.4,7.5-7.5S22.6,11,18.5,11L18.5,11z"/>
</g>
<g>
	<line fill="none" stroke="#FFAD2A" stroke-miterlimit="10" x1="21.5" y1="14.5" x2="15.5" y2="22.5"/>
</g>
</svg>
