<?xml version="1.0" encoding="utf-8"?>
<!-- Generator: Adobe Illustrator 21.0.2, SVG Export Plug-In . SVG Version: 6.00 Build 0)  -->
<svg version="1.1" id="Слой_1" xmlns="http://www.w3.org/2000/svg" xmlns:xlink="http://www.w3.org/1999/xlink" x="0px" y="0px"
	 viewBox="0 0 36 36" enable-background="new 0 0 36 36" xml:space="preserve">
<g>
	<path fill="#FFFFFF" d="M18,35.5C8.4,35.5,0.5,27.6,0.5,18S8.4,0.5,18,0.5S35.5,8.4,35.5,18S27.6,35.5,18,35.5z"/>
	<path fill="#FFAD2A" d="M18,1c9.4,0,17,7.6,17,17s-7.6,17-17,17S1,27.4,1,18S8.6,1,18,1 M18,0C8.1,0,0,8.1,0,18s8.1,18,18,18
		s18-8.1,18-18S27.9,0,18,0L18,0z"/>
</g>
<g>
	<path fill="none" stroke="#FBB03B" stroke-miterlimit="10" d="M10.8,10.5l-2.2,0c-0.6,0-1,0.5-1,1l0,20.5c0,0.6,0.5,1,1,1l1.9,1.4
		c0.6,0,1,0.6,1,0l0.3-23C11.8,11,11.3,10.5,10.8,10.5z"/>
	<line fill="none" stroke="#FBB03B" stroke-miterlimit="10" x1="11.9" y1="29.1" x2="8" y2="32.7"/>
	<line fill="none" stroke="#FBB03B" stroke-miterlimit="10" x1="12" y1="29.3" x2="7.6" y2="26.5"/>
	<line fill="none" stroke="#FBB03B" stroke-miterlimit="10" x1="11.7" y1="23.1" x2="7.8" y2="26.7"/>
	<line fill="none" stroke="#FBB03B" stroke-miterlimit="10" x1="12" y1="23" x2="7.2" y2="20.8"/>
	<line fill="none" stroke="#FBB03B" stroke-miterlimit="10" x1="11.6" y1="17.3" x2="7.4" y2="20.6"/>
	<path fill="none" stroke="#FBB03B" stroke-miterlimit="10" d="M11.8,17c-1.3-0.6-2.7-1.2-4-1.9"/>
	<line fill="none" stroke="#FBB03B" stroke-miterlimit="10" x1="10.9" y1="10.8" x2="7.7" y2="15.1"/>
</g>
<g>
	<path fill="none" stroke="#FBB03B" stroke-miterlimit="10" d="M29.9,15.2l-0.8-1.7c-0.2-0.5-0.9-0.7-1.6-0.6l-25,4.7
		c-0.7,0.1-1.1,0.6-0.9,1.1l0.8,1.7C2.6,20.8,3.3,21.1,4,21l25-4.7C29.8,16.1,30.2,15.6,29.9,15.2z"/>
	<line fill="none" stroke="#FBB03B" stroke-miterlimit="10" x1="7.6" y1="20.3" x2="1.8" y2="18.1"/>
	<line fill="none" stroke="#FBB03B" stroke-miterlimit="10" x1="7.4" y1="20.5" x2="9.3" y2="16.3"/>
	<line fill="none" stroke="#FBB03B" stroke-miterlimit="10" x1="14.8" y1="18.8" x2="9.1" y2="16.5"/>
	<line fill="none" stroke="#FBB03B" stroke-miterlimit="10" x1="15.1" y1="19" x2="16.1" y2="14.7"/>
	<line fill="none" stroke="#FBB03B" stroke-miterlimit="10" x1="21.9" y1="17.4" x2="16.4" y2="14.8"/>
	<path fill="none" stroke="#FBB03B" stroke-miterlimit="10" d="M22.3,17.5c0.3-1.2,0.6-2.4,0.8-3.6"/>
	<line fill="none" stroke="#FBB03B" stroke-miterlimit="10" x1="29.6" y1="15.4" x2="23.3" y2="13.8"/>
</g>
</svg>
