<?xml version="1.0" encoding="utf-8"?>
<!-- Generator: Adobe Illustrator 21.0.2, SVG Export Plug-In . SVG Version: 6.00 Build 0)  -->
<svg version="1.1" id="Слой_1" xmlns="http://www.w3.org/2000/svg" xmlns:xlink="http://www.w3.org/1999/xlink" x="0px" y="0px"
	 viewBox="0 0 36 36" enable-background="new 0 0 36 36" xml:space="preserve">
<g>
	<path fill="#FFFFFF" d="M18,35.5C8.4,35.5,0.5,27.6,0.5,18S8.4,0.5,18,0.5S35.5,8.4,35.5,18S27.6,35.5,18,35.5z"/>
	<path fill="#FFAD2A" d="M18,1c9.4,0,17,7.6,17,17s-7.6,17-17,17S1,27.4,1,18S8.6,1,18,1 M18,0C8.1,0,0,8.1,0,18s8.1,18,18,18
		s18-8.1,18-18S27.9,0,18,0L18,0z"/>
</g>
<g>
	<polygon fill="#FFAD2A" points="3.3,25.5 1.8,22.5 30.6,22.5 26.8,25.5 	"/>
	<path fill="#FFAD2A" d="M29.1,23l-2.5,2h-23l-1-2H29.1 M32,22H1l2,4h24L32,22L32,22z"/>
</g>
<g>
	<circle fill="#E9AB00" cx="14.5" cy="27.5" r="3"/>
	<path fill="#FFFFFF" d="M14.5,25c1.4,0,2.5,1.1,2.5,2.5S15.9,30,14.5,30S12,28.9,12,27.5S13.1,25,14.5,25 M14.5,24
		c-1.9,0-3.5,1.6-3.5,3.5s1.6,3.5,3.5,3.5s3.5-1.6,3.5-3.5S16.4,24,14.5,24L14.5,24z"/>
</g>
<g>
	<circle fill="#E9AB00" cx="21.5" cy="27.5" r="3"/>
	<path fill="#FFFFFF" d="M21.5,25c1.4,0,2.5,1.1,2.5,2.5S22.9,30,21.5,30S19,28.9,19,27.5S20.1,25,21.5,25 M21.5,24
		c-1.9,0-3.5,1.6-3.5,3.5s1.6,3.5,3.5,3.5c1.9,0,3.5-1.6,3.5-3.5S23.4,24,21.5,24L21.5,24z"/>
</g>
</svg>
