<?xml version="1.0" encoding="utf-8"?>
<!-- Generator: Adobe Illustrator 21.0.2, SVG Export Plug-In . SVG Version: 6.00 Build 0)  -->
<svg version="1.1" id="Слой_1" xmlns="http://www.w3.org/2000/svg" xmlns:xlink="http://www.w3.org/1999/xlink" x="0px" y="0px"
	 viewBox="0 0 36 36" enable-background="new 0 0 36 36" xml:space="preserve">
<g>
	<path fill="#FFFFFF" d="M18,35.5C8.4,35.5,0.5,27.6,0.5,18S8.4,0.5,18,0.5S35.5,8.4,35.5,18S27.6,35.5,18,35.5z"/>
	<path fill="#FFAD2A" d="M18,1c9.4,0,17,7.6,17,17s-7.6,17-17,17S1,27.4,1,18S8.6,1,18,1 M18,0C8.1,0,0,8.1,0,18s8.1,18,18,18
		s18-8.1,18-18S27.9,0,18,0L18,0z"/>
</g>
<g>
	<path fill="#FFFFFF" d="M11.6,27.5c-0.3,0-0.5-0.1-0.7-0.3c-0.2-0.2-0.3-0.5-0.3-0.7l0.8-11.1c0-0.5,0.5-0.9,1-0.9h12.3
		c0.5,0,0.9,0.4,1,0.9l0.8,11.1c0,0.3-0.1,0.5-0.3,0.7c-0.2,0.2-0.4,0.3-0.7,0.3H11.6z"/>
	<path fill="#FFAD2A" d="M24.6,15c0.2,0,0.4,0.2,0.5,0.4l0.8,11.1c0,0.2-0.1,0.3-0.1,0.4c-0.1,0.1-0.2,0.1-0.3,0.1H11.6
		c-0.2,0-0.3-0.1-0.3-0.1c-0.1-0.1-0.1-0.2-0.1-0.4l0.8-11.1c0-0.2,0.2-0.4,0.5-0.4H24.6 M24.6,14H12.4c-0.8,0-1.4,0.6-1.5,1.4
		l-0.8,11.1c-0.1,0.8,0.6,1.6,1.5,1.6h13.9c0.9,0,1.5-0.7,1.5-1.6l-0.8-11.1C26,14.6,25.4,14,24.6,14L24.6,14z"/>
</g>
<g>
	<path fill="#FFFFFF" d="M17,14.5c-0.3,0-0.5-0.2-0.5-0.5V11c0-0.3,0.2-0.5,0.5-0.5H20c0.3,0,0.5,0.2,0.5,0.5V14
		c0,0.3-0.2,0.5-0.5,0.5H17z"/>
	<path fill="#FFAD2A" d="M20,11C20,11,20,11,20,11l0,3c0,0,0,0,0,0H17c0,0,0,0,0,0V11c0,0,0,0,0,0H20 M20,10H17c-0.6,0-1,0.5-1,1V14
		c0,0.6,0.5,1,1,1H20c0.6,0,1-0.5,1-1V11C21,10.5,20.5,10,20,10L20,10z"/>
</g>
<line fill="none" stroke="#FFAD2A" stroke-miterlimit="10" x1="18.5" y1="20.5" x2="18.5" y2="25.5"/>
<line fill="none" stroke="#FFAD2A" stroke-miterlimit="10" x1="15.5" y1="20.5" x2="21.5" y2="20.5"/>
</svg>
